<svg width="98" height="21" viewBox="0 0 98 21" fill="none" xmlns="http://www.w3.org/2000/svg">
<path d="M0.192813 21L9.79281 -1.43051e-06H11.9828L21.5828 21H19.2428L10.4228 1.29H11.3228L2.50281 21H0.192813ZM3.97281 15.39L4.63281 13.59H16.8428L17.5028 15.39H3.97281ZM25.0567 21V-1.43051e-06H32.9167C34.6967 -1.43051e-06 36.2267 0.289999 37.5067 0.87C38.7867 1.43 39.7667 2.25 40.4467 3.33C41.1467 4.39 41.4967 5.68 41.4967 7.2C41.4967 8.68 41.1467 9.96 40.4467 11.04C39.7667 12.1 38.7867 12.92 37.5067 13.5C36.2267 14.06 34.6967 14.34 32.9167 14.34H26.2867L27.2767 13.32V21H25.0567ZM39.3967 21L33.9967 13.38H36.3967L41.8267 21H39.3967ZM27.2767 13.5L26.2867 12.45H32.8567C34.9567 12.45 36.5467 11.99 37.6267 11.07C38.7267 10.15 39.2767 8.86 39.2767 7.2C39.2767 5.52 38.7267 4.22 37.6267 3.3C36.5467 2.38 34.9567 1.92 32.8567 1.92H26.2867L27.2767 0.87V13.5ZM46.7364 21V-1.43051e-06H55.2864C57.5264 -1.43051e-06 59.4864 0.449999 61.1664 1.35C62.8664 2.23 64.1864 3.46 65.1264 5.04C66.0664 6.62 66.5364 8.44 66.5364 10.5C66.5364 12.56 66.0664 14.38 65.1264 15.96C64.1864 17.54 62.8664 18.78 61.1664 19.68C59.4864 20.56 57.5264 21 55.2864 21H46.7364ZM48.9564 19.08H55.1664C57.0264 19.08 58.6364 18.72 59.9964 18C61.3764 17.26 62.4464 16.25 63.2064 14.97C63.9664 13.67 64.3464 12.18 64.3464 10.5C64.3464 8.8 63.9664 7.31 63.2064 6.03C62.4464 4.75 61.3764 3.75 59.9964 3.03C58.6364 2.29 57.0264 1.92 55.1664 1.92H48.9564V19.08ZM71.5216 21V-1.43051e-06H73.7416V21H71.5216ZM86.3099 21L77.0099 -1.43051e-06H79.4099L88.1099 19.77H86.7899L95.5499 -1.43051e-06H97.7999L88.4999 21H86.3099Z" fill="black"/>
</svg>
