<svg width="35" height="16" viewBox="0 0 35 16" fill="none" xmlns="http://www.w3.org/2000/svg">
<path d="M3.77539 8.2969V2.82423C3.77539 1.81077 4.56818 1 5.55917 1H15.8647M31.3235 8.2969H31.2244V2.82423C31.2244 1.81077 30.4316 1 29.4406 1H19.3325C18.3415 1 17.5479 1.81077 17.5479 2.82423M17.5479 2.82423C17.5479 1.81077 16.756 1 15.765 1M17.5479 2.82423V8.2978M32.2162 14.1752H33.8018M33.8018 14.1752C33.9009 14.1752 34 14.0738 34 13.9725V8.3985M33.8018 14.1752H1.1982M34 8.3985C34 8.2971 33.9 8.2971 33.8009 8.2971H1.19727C1.09817 8.2971 1 8.3985 1 8.4998M34 8.3985V8.9058M1 8.4998V8.9058M1 8.4998V14.0738C1 14.1752 1.0991 14.1752 1.1982 14.1752M1.1982 14.1752H2.48649M15.8638 14.1749H18.8367M1.99023 13.973V15.9999M32.7109 15.9999V13.973M17.5488 8.2969V14.1749" stroke="black" stroke-miterlimit="10"/>
</svg>
