<svg width="22" height="19" viewBox="0 0 22 19" fill="none" xmlns="http://www.w3.org/2000/svg">
<path d="M10.6158 3.51585L11.0156 3.99601L11.3964 3.50062C11.9766 2.74586 12.6623 1.98682 13.4274 1.41976C14.1924 0.852781 15.0061 0.5 15.8538 0.5C17.4217 0.5 18.7022 1.21945 19.6003 2.24883C20.5054 3.28627 21 4.61486 21 5.7732C21 8.4194 19.5671 10.7826 17.5223 12.931C15.7206 14.824 13.5011 16.4927 11.4967 17.9997C11.3295 18.1254 11.1638 18.25 11 18.3734C10.8362 18.25 10.6705 18.1254 10.5033 17.9997C8.49894 16.4927 6.27945 14.824 4.47774 12.931C2.43292 10.7826 1 8.4194 1 5.7732C1 4.61487 1.49459 3.28627 2.39975 2.24883C3.29787 1.21945 4.57836 0.5 6.1462 0.5C6.99129 0.5 7.77915 0.850626 8.53251 1.41757C9.28866 1.98661 9.97632 2.74794 10.6158 3.51585Z" stroke="black"/>
</svg>
