<svg width="30" height="30" viewBox="0 0 30 30" fill="none" xmlns="http://www.w3.org/2000/svg">
<path d="M14.6158 10.5159L15.0156 10.996L15.3964 10.5006C15.9766 9.74586 16.6623 8.98682 17.4274 8.41976C18.1924 7.85278 19.0061 7.5 19.8538 7.5C21.4217 7.5 22.7022 8.21945 23.6003 9.24883C24.5054 10.2863 25 11.6149 25 12.7732C25 15.4194 23.5671 17.7826 21.5223 19.931C19.7206 21.824 17.5011 23.4927 15.4967 24.9997C15.3295 25.1254 15.1638 25.25 15 25.3734C14.8362 25.25 14.6705 25.1254 14.5033 24.9997C12.4989 23.4927 10.2794 21.824 8.47774 19.931C6.43292 17.7826 5 15.4194 5 12.7732C5 11.6149 5.49459 10.2863 6.39975 9.24883C7.29787 8.21945 8.57836 7.5 10.1462 7.5C10.9913 7.5 11.7791 7.85063 12.5325 8.41757C13.2887 8.98661 13.9763 9.74794 14.6158 10.5159Z" stroke="black"/>
</svg>
