<svg width="35" height="22" viewBox="0 0 35 22" fill="none" xmlns="http://www.w3.org/2000/svg">
<path d="M4.54742 6.67467V3.57939C4.54742 2.15483 6.11799 1 8.05539 1H26.5836C28.5211 1 30.0916 2.15483 30.0916 3.57939V6.67467M3.17449 18.0234L3.12898 20.9994M27.9636 18.0232H33.6401V8.44653C33.6401 7.46751 32.3694 6.67383 30.8018 6.67383C29.2343 6.67383 27.9636 7.46751 27.9636 8.44653V18.0232ZM27.9636 18.0232L5.96718 18.0234M31.3982 18.0234L31.4436 20.9998M6.67675 15H27.9636M27.9632 14.4132V10.2861H6.67641V14.4132M1 18.0232H6.67649V8.44653C6.67649 7.46751 5.40573 6.67383 3.83824 6.67383C2.27074 6.67383 1 7.46751 1 8.44653V18.0232Z" stroke="black" stroke-miterlimit="10"/>
</svg>
