<svg width="18" height="23" viewBox="0 0 18 23" fill="none" xmlns="http://www.w3.org/2000/svg">
<path d="M16.186 12.8099L16.186 12.8099C16.0096 13.1693 15.4639 13.9571 14.7016 14.9804C13.9523 15.9862 13.0265 17.177 12.1236 18.3194C11.2211 19.4612 10.3434 20.5522 9.6912 21.358C9.4153 21.6989 9.17983 21.9886 9 22.2094C8.82017 21.9886 8.5847 21.6989 8.3088 21.358C7.65662 20.5522 6.77895 19.4612 5.87644 18.3194C4.9735 17.177 4.04766 15.9862 3.29836 14.9804C2.53607 13.9571 1.99041 13.1693 1.81397 12.8099L1.81396 12.8099C1.0277 11.2087 0.5 9.60574 0.5 8.1849C0.5 6.15585 1.38847 4.20365 2.98052 2.75972L2.98052 2.75972C4.57332 1.31509 6.73829 0.5 9 0.5C11.2616 0.5 13.4267 1.31509 15.0195 2.75972C16.6115 4.20365 17.5 6.15586 17.5 8.1849C17.5 9.60574 16.9723 11.2087 16.186 12.8099Z" stroke="black"/>
<path d="M11.25 9C11.25 10.2426 10.2426 11.25 9 11.25C7.75736 11.25 6.75 10.2426 6.75 9C6.75 7.75736 7.75736 6.75 9 6.75C10.2426 6.75 11.25 7.75736 11.25 9Z" stroke="black"/>
</svg>
