<svg width="30" height="30" viewBox="0 0 30 30" fill="none" xmlns="http://www.w3.org/2000/svg">
<path d="M22.186 16.8099L22.186 16.8099C22.0096 17.1693 21.4639 17.9571 20.7016 18.9804C19.9523 19.9862 19.0265 21.177 18.1236 22.3194C17.2211 23.4612 16.3434 24.5522 15.6912 25.358C15.4153 25.6989 15.1798 25.9886 15 26.2094C14.8202 25.9886 14.5847 25.6989 14.3088 25.358C13.6566 24.5522 12.7789 23.4612 11.8764 22.3194C10.9735 21.177 10.0477 19.9862 9.29836 18.9804C8.53607 17.9571 7.99041 17.1693 7.81397 16.8099L7.81396 16.8099C7.0277 15.2087 6.5 13.6057 6.5 12.1849C6.5 10.1559 7.38847 8.20365 8.98052 6.75972L8.98052 6.75972C10.5733 5.31509 12.7383 4.5 15 4.5C17.2616 4.5 19.4267 5.31509 21.0195 6.75972C22.6115 8.20365 23.5 10.1559 23.5 12.1849C23.5 13.6057 22.9723 15.2087 22.186 16.8099Z" stroke="black"/>
<path d="M17.25 13C17.25 14.2426 16.2426 15.25 15 15.25C13.7574 15.25 12.75 14.2426 12.75 13C12.75 11.7574 13.7574 10.75 15 10.75C16.2426 10.75 17.25 11.7574 17.25 13Z" stroke="black"/>
</svg>
