<svg width="30" height="30" viewBox="0 0 30 30" fill="none" xmlns="http://www.w3.org/2000/svg">
<path d="M12.4519 19.6359L12.712 19.8031L12.9777 19.6451C15.9193 17.8965 17.8848 15.145 18.7931 11.5554L18.8813 11.2067L18.5787 11.0122L17.8566 10.548L17.8566 10.548C16.8658 9.91104 16.6107 8.57395 17.2976 7.61705L17.2976 7.61704L18.5249 5.90722C18.8537 5.44919 19.4232 5.23042 19.974 5.35051L20.0806 4.86199L19.974 5.35051C21.8315 5.75549 23.2908 7.1942 23.2074 8.91461C23.1067 10.9954 22.2678 13.5566 19.3828 17.5758C16.2854 21.8909 13.8966 23.6597 11.6762 24.5481C10.1665 25.1521 8.42878 24.4356 7.39176 23.0131C7.04737 22.5407 7.045 21.9007 7.38589 21.4257L6.9798 21.1343L7.38589 21.4257L8.73921 19.5402C9.36977 18.6618 10.578 18.4313 11.4877 19.0161L11.7581 18.5955L11.4877 19.0161L12.4519 19.6359Z" stroke="black"/>
</svg>
