<svg width="18" height="22" viewBox="0 0 18 22" fill="none" xmlns="http://www.w3.org/2000/svg">
<path d="M6.45189 15.6359L6.71197 15.8031L6.97774 15.6451C9.9193 13.8965 11.8848 11.145 12.7931 7.55544L12.8813 7.20671L12.5787 7.01219L11.8566 6.54799L11.8566 6.54799C10.8658 5.91104 10.6107 4.57395 11.2976 3.61705L11.2976 3.61704L12.5249 1.90722C12.5249 1.90721 12.5249 1.90721 12.5249 1.9072C12.8537 1.44918 13.4232 1.23042 13.974 1.35051L14.0804 0.862487L13.974 1.35051C15.8315 1.75549 17.2908 3.1942 17.2074 4.91461C17.1067 6.99544 16.2678 9.55659 13.3828 13.5758C10.2854 17.8909 7.89664 19.6597 5.67622 20.5481C4.16655 21.1521 2.42878 20.4356 1.39176 19.0131C1.04737 18.5407 1.045 17.9007 1.38589 17.4257L0.979695 17.1342L1.38589 17.4257L2.73921 15.5402C3.36977 14.6618 4.578 14.4313 5.48769 15.0161L5.75805 14.5955L5.48769 15.0161L6.45189 15.6359Z" stroke="black"/>
</svg>
