<svg width="20" height="20" viewBox="0 0 20 20" fill="none" xmlns="http://www.w3.org/2000/svg">
<mask id="path-1-inside-1_733_1853" fill="white">
<path d="M10.0002 10.4854C12.9002 10.4854 15.3002 8.1553 15.3002 5.2427C15.3002 2.33009 12.9002 0 10.0002 0C7.1002 0 4.7002 2.33009 4.7002 5.2427C4.7002 8.0582 7.1002 10.4854 10.0002 10.4854Z"/>
<path d="M20 20C18.7 15.8253 14.6 12.7185 10 12.7185C5.3 12.7185 1.3 15.7282 0 20"/>
</mask>
<path d="M10.0002 11.4854C13.4367 11.4854 16.3002 8.72322 16.3002 5.2427H14.3002C14.3002 7.58738 12.3637 9.4854 10.0002 9.4854V11.4854ZM16.3002 5.2427C16.3002 1.76217 13.4367 -1 10.0002 -1V1C12.3637 1 14.3002 2.89801 14.3002 5.2427H16.3002ZM10.0002 -1C6.56369 -1 3.7002 1.76216 3.7002 5.2427H5.7002C5.7002 2.89801 7.63671 1 10.0002 1V-1ZM3.7002 5.2427C3.7002 8.61417 6.55161 11.4854 10.0002 11.4854V9.4854C7.64879 9.4854 5.7002 7.50223 5.7002 5.2427H3.7002ZM20.9548 19.7027C19.5249 15.1108 15.0386 11.7185 10 11.7185V13.7185C14.1614 13.7185 17.8751 16.5398 19.0452 20.2973L20.9548 19.7027ZM10 11.7185C4.86618 11.7185 0.473294 15.01 -0.956681 19.7089L0.956681 20.2911C2.12671 16.4464 5.73382 13.7185 10 13.7185V11.7185Z" fill="black" mask="url(#path-1-inside-1_733_1853)"/>
</svg>
