<svg width="30" height="30" viewBox="0 0 30 30" fill="none" xmlns="http://www.w3.org/2000/svg">
<mask id="path-1-inside-1_543_553" fill="white">
<path d="M15.0002 16.4854C17.9002 16.4854 20.3002 14.1553 20.3002 11.2427C20.3002 8.33009 17.9002 6 15.0002 6C12.1002 6 9.7002 8.33009 9.7002 11.2427C9.7002 14.0582 12.1002 16.4854 15.0002 16.4854Z"/>
<path d="M25 26C23.7 21.8253 19.6 18.7185 15 18.7185C10.3 18.7185 6.3 21.7282 5 26"/>
</mask>
<path d="M15.0002 17.4854C18.4367 17.4854 21.3002 14.7232 21.3002 11.2427H19.3002C19.3002 13.5874 17.3637 15.4854 15.0002 15.4854V17.4854ZM21.3002 11.2427C21.3002 7.76217 18.4367 5 15.0002 5V7C17.3637 7 19.3002 8.89801 19.3002 11.2427H21.3002ZM15.0002 5C11.5637 5 8.7002 7.76216 8.7002 11.2427H10.7002C10.7002 8.89801 12.6367 7 15.0002 7V5ZM8.7002 11.2427C8.7002 14.6142 11.5516 17.4854 15.0002 17.4854V15.4854C12.6488 15.4854 10.7002 13.5022 10.7002 11.2427H8.7002ZM25.9548 25.7027C24.5249 21.1108 20.0386 17.7185 15 17.7185V19.7185C19.1614 19.7185 22.8751 22.5398 24.0452 26.2973L25.9548 25.7027ZM15 17.7185C9.86618 17.7185 5.47329 21.01 4.04332 25.7089L5.95668 26.2911C7.12671 22.4464 10.7338 19.7185 15 19.7185V17.7185Z" fill="black" mask="url(#path-1-inside-1_543_553)"/>
</svg>
