<svg width="30" height="30" viewBox="0 0 30 30" fill="none" xmlns="http://www.w3.org/2000/svg">
<mask id="path-1-inside-1_544_675" fill="white">
<path d="M10 11.5V7.94748C10 5.79364 11.6 4.5 13.5 4.5H16.5C18.5 4.5 20 5.79364 20 7.94748V11.5"/>
</mask>
<path d="M11 11.5V7.94748H9V11.5H11ZM11 7.94748C11 7.1334 11.2951 6.54191 11.7184 6.14846C12.1515 5.74579 12.7749 5.5 13.5 5.5V3.5C12.3251 3.5 11.1985 3.90103 10.3566 4.68364C9.50486 5.47547 9 6.60772 9 7.94748H11ZM13.5 5.5H16.5V3.5H13.5V5.5ZM16.5 5.5C17.2847 5.5 17.9003 5.7514 18.3119 6.14169C18.7162 6.52505 19 7.11379 19 7.94748H21C21 6.62733 20.5338 5.49233 19.6881 4.69041C18.8497 3.89542 17.7153 3.5 16.5 3.5V5.5ZM19 7.94748V11.5H21V7.94748H19Z" fill="black" mask="url(#path-1-inside-1_544_675)"/>
<path d="M5.5 22.2001V10H24.5002V22.2001C24.5002 24.1568 23.317 25.4501 21.9699 25.4501H8.03033C6.69088 25.4501 5.5 24.0649 5.5 22.2001Z" stroke="black"/>
</svg>
