<svg width="20" height="22" viewBox="0 0 20 22" fill="none" xmlns="http://www.w3.org/2000/svg">
<mask id="path-1-inside-1_818_2012" fill="white">
<path d="M5 7.5V3.94748C5 1.79364 6.6 0.5 8.5 0.5H11.5C13.5 0.5 15 1.79364 15 3.94748V7.5"/>
</mask>
<path d="M6 7.5V3.94748H4V7.5H6ZM6 3.94748C6 3.1334 6.29514 2.54191 6.71837 2.14846C7.15152 1.74579 7.7749 1.5 8.5 1.5V-0.5C7.3251 -0.5 6.19848 -0.0989666 5.35663 0.683644C4.50486 1.47547 4 2.60772 4 3.94748H6ZM8.5 1.5H11.5V-0.5H8.5V1.5ZM11.5 1.5C12.2847 1.5 12.9003 1.7514 13.3119 2.14169C13.7162 2.52505 14 3.11379 14 3.94748H16C16 2.62733 15.5338 1.49233 14.6881 0.690407C13.8497 -0.104576 12.7153 -0.5 11.5 -0.5V1.5ZM14 3.94748V7.5H16V3.94748H14Z" fill="black" mask="url(#path-1-inside-1_818_2012)"/>
<path d="M0.5 18.2001V6H19.5002V18.2001C19.5002 20.1568 18.317 21.4501 16.9699 21.4501H3.03033C1.69088 21.4501 0.5 20.0649 0.5 18.2001Z" stroke="black"/>
</svg>
