<svg width="30" height="30" viewBox="0 0 30 30" fill="none" xmlns="http://www.w3.org/2000/svg">
<path d="M10 23.3217V23.0246L9.7391 22.8826C6.59574 21.1711 4.5 17.9847 4.5 14.3534C4.5 8.93962 9.17204 4.5 15 4.5C20.8279 4.5 25.5 8.93962 25.5 14.3534C25.5 19.7672 20.8279 24.2068 15 24.2068C14.1915 24.2068 13.4049 24.1211 12.6498 23.959L12.4109 23.9078L12.2237 24.0647L10 25.9285V23.3217Z" stroke="black"/>
<path d="M10 15.4545C10.5523 15.4545 11 15.0068 11 14.4545C11 13.9022 10.5523 13.4545 10 13.4545C9.44772 13.4545 9 13.9022 9 14.4545C9 15.0068 9.44772 15.4545 10 15.4545Z" fill="black"/>
<path d="M15 15.4545C15.5523 15.4545 16 15.0068 16 14.4545C16 13.9022 15.5523 13.4545 15 13.4545C14.4477 13.4545 14 13.9022 14 14.4545C14 15.0068 14.4477 15.4545 15 15.4545Z" fill="black"/>
<path d="M20 15.4545C20.5523 15.4545 21 15.0068 21 14.4545C21 13.9022 20.5523 13.4545 20 13.4545C19.4477 13.4545 19 13.9022 19 14.4545C19 15.0068 19.4477 15.4545 20 15.4545Z" fill="black"/>
</svg>
