<svg width="22" height="23" viewBox="0 0 22 23" fill="none" xmlns="http://www.w3.org/2000/svg">
<path d="M6 19.3217V19.0246L5.7391 18.8826C2.59574 17.1711 0.5 13.9847 0.5 10.3534C0.5 4.93962 5.17204 0.5 11 0.5C16.8279 0.5 21.5 4.93962 21.5 10.3534C21.5 15.7672 16.8279 20.2068 11 20.2068C10.1915 20.2068 9.40488 20.1211 8.64981 19.959L8.41095 19.9078L8.22372 20.0647L6 21.9285V19.3217Z" stroke="black"/>
<path d="M6 11.4545C6.55228 11.4545 7 11.0068 7 10.4545C7 9.90218 6.55228 9.45447 6 9.45447C5.44772 9.45447 5 9.90218 5 10.4545C5 11.0068 5.44772 11.4545 6 11.4545Z" fill="black"/>
<path d="M11 11.4545C11.5523 11.4545 12 11.0068 12 10.4545C12 9.90218 11.5523 9.45447 11 9.45447C10.4477 9.45447 10 9.90218 10 10.4545C10 11.0068 10.4477 11.4545 11 11.4545Z" fill="black"/>
<path d="M16 11.4545C16.5523 11.4545 17 11.0068 17 10.4545C17 9.90218 16.5523 9.45447 16 9.45447C15.4477 9.45447 15 9.90218 15 10.4545C15 11.0068 15.4477 11.4545 16 11.4545Z" fill="black"/>
</svg>
